#!OML:ASF H:\Terrain\Patient Classification 1\Terrain2\Thursday\justin.ASF
:FULLY-SPECIFIED
:DEGREES
2153
root 20.8328 23.9732 10.9508 882.132 -86.459 199.663
lowerback 7.31145 0.180557 -0.185752
upperback 2.265 0.206632 3.01693
thorax -1.77193 0.0615114 3.20278
lowerneck -14.44 -0.374236 -9.03694
upperneck 38.4136 -0.90626 3.84526
head 16.1954 -1.71645 2.98349
rclavicle -3.67752e-015 -3.18055e-014
rhumerus -30.3823 -6.76258 -80.946
rradius 32.985
rwrist -13.5005
rhand -19.7364 13.4155
rfingers 7.12502
rthumb 6.59426 -16.4618
lclavicle -3.67752e-015 -3.18055e-014
lhumerus -30.7224 4.43168 85.5072
lradius 33.4061
lwrist 3.72138
lhand -19.3455 22.2966
lfingers 7.12502
lthumb 6.97168 52.1618
rfemur -17.6834 -2.50074 24.3977
rtibia 35.5596
rfoot -16.7606 0.044783
rtoes 10.2176
lfemur -5.61338 -1.40771 -18.3709
ltibia 25.8614
lfoot -16.738 -10.8514
ltoes 10.9732
2154
root 20.7523 23.9532 10.9216 870.801 -85.9308 210.987
lowerback 7.04788 0.0498436 0.479227
upperback 2.23977 0.0722326 3.43898
thorax -1.64312 -0.0120109 3.27603
lowerneck -14.4427 -0.167587 -9.1176
upperneck 38.615 -0.50844 3.62692
head 16.2654 -1.61055 2.97254
rclavicle 9.93923e-017 -3.18055e-015
rhumerus -30.3285 -6.38688 -80.882
rradius 32.3472
rwrist -13.4053
rhand -19.7848 13.3719
rfingers 7.12502
rthumb 6.54757 -16.5069
lclavicle 9.93923e-017 -3.18055e-015
lhumerus -31.0247 5.75396 85.2198
lradius 33.1397
lwrist 3.08978
lhand -18.8163 21.928
lfingers 7.12502
lthumb 7.48247 51.7757
rfemur -17.267 -2.53574 25.5061
rtibia 35.3795
rfoot -16.8073 0.231365
rtoes 9.79162
lfemur -5.45888 -0.969147 -17.3379
ltibia 26.1902
lfoot -17.7061 -10.2302
ltoes 4.59289
2155
root 20.6712 23.9746 10.9133 869.704 -85.7419 212.149
lowerback 6.74455 0.114894 0.806296
upperback 2.22023 0.173382 3.49882
thorax -1.49916 0.0375362 3.14362
lowerneck -14.5043 -0.188939 -9.20214
upperneck 38.8797 -0.566071 3.70061
head 16.4259 -1.65409 3.01649
rclavicle -1.28216e-014 5.00937e-014
rhumerus -30.3878 -6.38088 -80.7962
rradius 31.9947
rwrist -13.3251
rhand -20.4666 12.9452
rfingers 7.12502
rthumb 5.88934 -16.953
lclavicle -1.28216e-014 5.00937e-014
lhumerus -31.1345 5.57078 85.5365
lradius 33.1571
lwrist 4.33042
lhand -19.7321 23.0483
lfingers 7.12502
lthumb 6.59844 52.9255
rfemur -16.8313 -2.54008 25.6916
rtibia 35.0729
rfoot -16.8717 0.517676
rtoes 9.87803
lfemur -5.22847 -2.23541 -17.1138
ltibia 26.7828
lfoot -17.6145 -10.3441
ltoes 13.5879
2156
root 20.5971 23.9693 10.9073 869.097 -85.5663 212.777
lowerback 6.58852 0.216196 1.15682
upperback 2.17216 0.32732 3.58598
thorax -1.46778 0.113772 3.02382
lowerneck -14.4723 -0.251793 -9.5881
upperneck 39.07 -0.664973 3.95388
head 16.5321 -1.73105 3.18565
rclavicle -2.78299e-015 1.98785e-014
rhumerus -30.5792 -5.89038 -80.6745
rradius 31.885
rwrist -14.1278
rhand -20.3798 12.7986
rfingers 7.12502
rthumb 5.97314 -17.0972
lclavicle -2.78299e-015 1.98785e-014
lhumerus -31.1978 6.12811 85.5919
lradius 32.7615
lwrist 3.98036
lhand -19.2266 22.4219
lfingers 7.12502
lthumb 7.08641 52.2833
rfemur -16.41 -2.56876 25.7938
rtibia 34.7862
rfoot -16.7914 1.05933
rtoes 11.7388
lfemur -5.17042 -3.1874 -16.9839
ltibia 27.5275
lfoot -17.3244 -10.5824
ltoes 21.3962
2157
root 20.5261 23.9596 10.8868 864.881 -85.3159 216.951
lowerback 6.52944 0.19735 1.62196
upperback 2.13067 0.327705 3.78268
thorax -1.47565 0.110937 2.96582
lowerneck -14.4355 -0.23469 -9.77059
upperneck 39.1473 -0.575353 3.9043
head 16.5583 -1.73518 3.21254
rclavicle 5.56597e-015 -3.97569e-015
rhumerus -30.6038 -5.81241 -80.5517
rradius 31.3664
rwrist -13.8023
rhand -20.0613 12.7562
rfingers 7.12502
rthumb 6.28067 -17.1307
lclavicle 5.56597e-015 -3.97569e-015
lhumerus -31.4525 6.75004 85.6056
lradius 32.6354
lwrist 3.90905
lhand -20.1823 23.2231
lfingers 7.12502
lthumb 6.16386 53.1134
rfemur -15.9988 -2.97575 26.2645
rtibia 34.5217
rfoot -16.7689 1.68008
rtoes 12.8293
lfemur -5.1745 -3.7046 -16.4884
ltibia 28.384
lfoot -17.0278 -10.8738
ltoes 26.6849
2158
root 20.4578 23.9398 10.8642 864.637 -85.4646 216.993
lowerback 6.628 0.109609 1.58421
upperback 2.1248 0.212541 3.77166
thorax -1.53206 0.0535314 2.98496
lowerneck -14.3762 -0.155957 -9.64552
upperneck 39.1705 -0.437692 3.72348
head 16.5418 -1.68852 3.13217
rclavicle 2.18663e-015 -2.94201e-014
rhumerus -30.6849 -5.83183 -80.6794
rradius 30.8749
rwrist -12.6125
rhand -20.5311 12.3485
rfingers 7.12502
rthumb 5.82705 -17.5513
lclavicle 2.18663e-015 -2.94201e-014
lhumerus -31.7263 7.26424 85.5061
lradius 32.55
lwrist 3.95097
lhand -21.8666 24.5835
lfingers 7.12502
lthumb 4.53758 54.5149
rfemur -15.5397 -3.25779 26.1727
rtibia 34.4264
rfoot -16.9605 2.037
rtoes 13.3286
lfemur -5.26604 -3.35587 -16.6572
ltibia 29.3435
lfoot -17.3149 -9.98971
ltoes 20.4217
2159
root 20.3926 23.9272 10.8416 863.404 -85.4629 218.051
lowerback 6.78163 0.11308 1.69189
upperback 2.09199 0.231215 3.7738
thorax -1.65161 0.0627351 2.9257
lowerneck -14.3358 -0.132103 -9.52315
upperneck 39.3064 -0.457847 3.70313
head 16.6047 -1.69231 3.09993
rclavicle -1.0138e-014 -1.51076e-014
rhumerus -30.9519 -5.4254 -80.9541
rradius 30.5604
rwrist -11.8666
rhand -21.8723 11.6681
rfingers 7.12502
rthumb 4.53207 -18.2634
lclavicle -1.0138e-014 -1.51076e-014
lhumerus -31.9166 7.45047 85.5021
lradius 32.4004
lwrist 4.02555
lhand -22.5977 24.8372
lfingers 7.12502
lthumb 3.83158 54.7825
rfemur -15.0268 -3.2305 26.2669
rtibia 34.3054
rfoot -17.2079 2.11986
rtoes 12.4332
lfemur -5.5381 -2.66867 -16.6135
ltibia 30.5759
lfoot -17.5214 -9.2163
ltoes 12.4432
2160
root 20.3281 23.921 10.823 859.343 -85.1924 222.024
lowerback 6.86824 0.216714 2.27133
upperback 2.05943 0.41004 3.7954
thorax -1.7357 0.149852 2.60745
lowerneck -14.3164 -0.208778 -9.278
upperneck 39.4345 -0.659459 3.66761
head 16.686 -1.7516 3.00773
rclavicle 3.8763e-015 -1.59028e-015
rhumerus -31.0795 -6.12665 -80.6868
rradius 30.3475
rwrist -12.406
rhand -20.6534 11.2574
rfingers 7.12502
rthumb 5.70903 -18.6457
lclavicle 3.8763e-015 -1.59028e-015
lhumerus -32.0419 6.99839 85.5828
lradius 32.3099
lwrist 4.40891
lhand -22.5063 24.3351
lfingers 7.12502
lthumb 3.91985 54.2788
rfemur -14.5624 -3.45966 26.7652
rtibia 34.1353
rfoot -17.4271 2.28752
rtoes 11.1565
lfemur -5.98602 -2.26947 -16.1303
ltibia 32.0681
lfoot -17.0546 -9.39143
ltoes 13.3952
2161
root 20.266 23.9191 10.8097 855.103 -85.1188 226.133
lowerback 6.96781 0.24838 2.88028
upperback 2.08785 0.492844 3.74695
thorax -1.75768 0.188931 2.20806
lowerneck -14.3064 -0.303095 -9.06336
upperneck 39.3861 -0.832654 3.58719
head 16.6724 -1.79614 2.90232
rclavicle 1.16289e-014 5.88403e-014
rhumerus -31.0584 -6.66339 -80.5847
rradius 29.9411
rwrist -12.1261
rhand -20.1885 11.3775
rfingers 7.12502
rthumb 6.15784 -18.513
lclavicle 1.16289e-014 5.88403e-014
lhumerus -32.0212 6.80625 85.5375
lradius 32.0845
lwrist 4.49975
lhand -22.1887 23.8256
lfingers 7.12502
lthumb 4.22654 53.7634
rfemur -13.9884 -4.14264 27.0642
rtibia 33.8207
rfoot -17.5106 2.96449
rtoes 12.3774
lfemur -6.58714 -2.06742 -15.8209
ltibia 33.8885
lfoot -16.4686 -9.37263
ltoes 13.3364
2162
root 20.203 23.9216 10.784 850.375 -85.1032 230.754
lowerback 7.00206 0.191415 3.17642
upperback 2.12648 0.433267 3.84794
thorax -1.73368 0.156341 2.15168
lowerneck -14.3972 -0.352699 -9.14071
upperneck 39.4869 -0.888315 3.60884
head 16.7568 -1.83224 2.91913
rclavicle -8.74653e-015 -1.43125e-014
rhumerus -31.0344 -6.62173 -80.5709
rradius 29.6208
rwrist -11.9374
rhand -20.7472 11.6324
rfingers 7.12502
rthumb 5.61841 -18.2731
lclavicle -8.74653e-015 -1.43125e-014
lhumerus -32.0715 7.08803 85.5112
lradius 31.8431
lwrist 4.13687
lhand -21.9849 22.9072
lfingers 7.12502
lthumb 4.42333 52.841
rfemur -13.4016 -4.5238 27.3778
rtibia 33.4281
rfoot -17.5589 3.27861
rtoes 13.3121
lfemur -7.39804 -1.47352 -15.4313
ltibia 35.9575
lfoot -15.8636 -9.50562
ltoes 9.81022
2163
root 20.1398 23.9238 10.7357 844.611 -84.8142 236.338
lowerback 7.10678 0.130072 3.33033
upperback 2.1918 0.35828 4.12551
thorax -1.72345 0.113178 2.3601
lowerneck -14.5157 -0.315269 -9.10051
upperneck 39.6549 -0.835529 3.58269
head 16.8727 -1.81753 2.9138
rclavicle -1.59028e-015 -7.15625e-015
rhumerus -30.9296 -6.93819 -80.4152
rradius 29.0581
rwrist -11.4265
rhand -20.889 11.7605
rfingers 7.12502
rthumb 5.4815 -18.1486
lclavicle -1.59028e-015 -7.15625e-015
lhumerus -32.1929 7.37645 85.515
lradius 31.7066
lwrist 3.5496
lhand -20.9446 22.1096
lfingers 7.12502
lthumb 5.42787 52.0201
rfemur -12.8242 -3.98498 28.1297
rtibia 33.1957
rfoot -17.7241 2.45892
rtoes 12.1527
lfemur -8.23105 -0.684078 -14.5874
ltibia 38.0564
lfoot -14.6833 -10.2973
ltoes 9.80353
2164
root 20.0858 23.9295 10.7072 841.34 -84.9397 239.529
lowerback 7.20266 0.163699 3.4161
upperback 2.21552 0.413007 4.08885
thorax -1.75213 0.14035 2.26934
lowerneck -14.4476 -0.412503 -8.86381
upperneck 39.5314 -1.03107 3.52732
head 16.8039 -1.85935 2.80958
rclavicle -6.26172e-015 -4.77083e-014
rhumerus -30.8555 -7.79925 -80.1871
rradius 28.4488
rwrist -10.7326
rhand -20.4635 11.7637
rfingers 7.12502
rthumb 5.89229 -18.1344
lclavicle -6.26172e-015 -4.77083e-014
lhumerus -32.057 7.17005 85.5997
lradius 31.4148
lwrist 3.09115
lhand -19.1178 22.2018
lfingers 7.12502
lthumb 7.1914 52.0597
rfemur -12.1037 -3.71734 28.2993
rtibia 32.335
rfoot -17.488 1.88563
rtoes 11.2773
lfemur -9.51796 -0.263031 -14.3579
ltibia 40.7071
lfoot -13.3533 -10.8422
ltoes 11.3686
2165
root 20.0401 23.9405 10.7314 847.889 -86.4967 233.306
lowerback 6.96897 0.154595 2.60063
upperback 2.07854 0.355316 3.48539
thorax -1.76626 0.125872 2.10526
lowerneck -14.3141 -0.571623 -8.93247
upperneck 39.4028 -1.29919 3.64108
head 16.7274 -1.95539 2.82322
rclavicle -6.95746e-016 -3.26007e-014
rhumerus -30.9004 -8.16959 -80.0525
rradius 28.1397
rwrist -10.5872
rhand -20.2549 11.9053
rfingers 7.12502
rthumb 6.09375 -17.9871
lclavicle -6.95746e-016 -3.26007e-014
lhumerus -31.9323 6.86668 85.7673
lradius 31.0503
lwrist 2.90043
lhand -18.4088 22.4647
lfingers 7.12502
lthumb 7.87577 52.298
rfemur -12.1061 -4.56819 26.4446
rtibia 31.9115
rfoot -17.4296 2.60906
rtoes 12.5849
lfemur -11.1819 -0.164182 -16.2202
ltibia 43.0204
lfoot -12.0256 -10.4675
ltoes 8.57466
2166
root 19.9657 23.8911 10.6065 823.358 -81.0875 256.494
lowerback 8.03455 0.0510208 7.12512
upperback 2.56256 0.510848 5.45269
thorax -1.81816 0.141115 1.61574
lowerneck -14.2839 -0.587892 -9.1195
upperneck 39.3736 -1.27901 3.68039
head 16.7057 -1.96802 2.8774
rclavicle -8.34896e-015 -5.725e-014
rhumerus -30.8173 -8.2843 -79.8355
rradius 27.7868
rwrist -10.4109
rhand -20.1928 12.2198
rfingers 7.12502
rthumb 6.1537 -17.6708
lclavicle -8.34896e-015 -5.725e-014
lhumerus -31.9561 7.29839 85.8433
lradius 30.7839
lwrist 2.40329
lhand -18.1956 22.546
lfingers 7.12502
lthumb 8.08154 52.3714
rfemur -9.79191 -2.38913 33.4225
rtibia 31.1656
rfoot -17.5329 0.265684
rtoes 15.0255
lfemur -11.2049 1.23518 -8.90166
ltibia 45.8115
lfoot -10.8363 -11.9057
ltoes 2.85671
2167
root 19.9157 23.9291 10.6441 826.249 -84.2943 254.292
lowerback 7.38735 0.0864572 4.71589
upperback 2.35396 0.388489 4.45016
thorax -1.70077 0.116726 1.91983
lowerneck -14.2185 -0.728292 -9.00938
upperneck 39.2292 -1.50201 3.64116
head 16.6318 -2.03723 2.79849
rclavicle 4.77083e-015 2.06736e-014
rhumerus -30.8026 -9.01146 -79.4764
rradius 27.4591
rwrist -9.98768
rhand -20.1784 12.0525
rfingers 7.12502
rthumb 6.16758 -17.8377
lclavicle 4.77083e-015 2.06736e-014
lhumerus -31.7922 7.11823 86.0184
lradius 30.4483
lwrist 1.97486
lhand -17.6656 22.2265
lfingers 7.12502
lthumb 8.59301 52.0317
rfemur -10.1222 -3.54859 29.7073
rtibia 30.594
rfoot -17.494 1.40706
rtoes 16.1084
lfemur -13.3727 0.929228 -12.7715
ltibia 48.186
lfoot -8.9535 -11.3742
ltoes 0.843659
